G04*
G04 #@! TF.GenerationSoftware,Altium Limited,Altium Designer,18.1.6 (161)*
G04*
G04 Layer_Color=8421504*
%FSLAX44Y44*%
%MOMM*%
G71*
G01*
G75*
%ADD19R,0.9300X0.7900*%
%ADD20R,0.9200X0.9300*%
%ADD21R,0.9300X0.9200*%
%ADD22O,2.0000X0.3500*%
%ADD23R,0.6100X0.6300*%
%ADD24O,0.8500X0.3000*%
%ADD25O,0.3000X0.8500*%
%ADD26R,3.5000X3.5000*%
%ADD27R,0.8500X0.9500*%
%ADD28R,0.6300X0.6100*%
%ADD29R,0.5000X0.6500*%
G04:AMPARAMS|DCode=30|XSize=0.8mm|YSize=0.8mm|CornerRadius=0.1mm|HoleSize=0mm|Usage=FLASHONLY|Rotation=90.000|XOffset=0mm|YOffset=0mm|HoleType=Round|Shape=RoundedRectangle|*
%AMROUNDEDRECTD30*
21,1,0.8000,0.6000,0,0,90.0*
21,1,0.6000,0.8000,0,0,90.0*
1,1,0.2000,0.3000,0.3000*
1,1,0.2000,0.3000,-0.3000*
1,1,0.2000,-0.3000,-0.3000*
1,1,0.2000,-0.3000,0.3000*
%
%ADD30ROUNDEDRECTD30*%
%ADD31R,1.8000X0.7500*%
%ADD32R,1.8000X0.6000*%
%ADD33R,0.9000X1.3000*%
G04:AMPARAMS|DCode=34|XSize=0.6mm|YSize=1mm|CornerRadius=0.075mm|HoleSize=0mm|Usage=FLASHONLY|Rotation=90.000|XOffset=0mm|YOffset=0mm|HoleType=Round|Shape=RoundedRectangle|*
%AMROUNDEDRECTD34*
21,1,0.6000,0.8500,0,0,90.0*
21,1,0.4500,1.0000,0,0,90.0*
1,1,0.1500,0.4250,0.2250*
1,1,0.1500,0.4250,-0.2250*
1,1,0.1500,-0.4250,-0.2250*
1,1,0.1500,-0.4250,0.2250*
%
%ADD34ROUNDEDRECTD34*%
%ADD35R,0.8000X1.6000*%
%ADD36R,2.1000X3.0000*%
%ADD37R,0.4000X1.3500*%
%ADD38R,1.9000X1.9000*%
%ADD39R,1.6000X1.4000*%
D19*
X48341Y226750D02*
D03*
Y243150D02*
D03*
X274320Y109330D02*
D03*
Y125730D02*
D03*
X274280Y92020D02*
D03*
Y75620D02*
D03*
D20*
X194380Y148590D02*
D03*
X209480D02*
D03*
D21*
X270510Y205740D02*
D03*
Y190640D02*
D03*
X256540Y205740D02*
D03*
Y190640D02*
D03*
X270510Y179000D02*
D03*
Y163900D02*
D03*
X256540Y179070D02*
D03*
Y163970D02*
D03*
X83820Y162420D02*
D03*
Y147320D02*
D03*
X62230Y242500D02*
D03*
Y227400D02*
D03*
X118110Y242500D02*
D03*
Y227400D02*
D03*
D22*
X231140Y160690D02*
D03*
Y167190D02*
D03*
Y173690D02*
D03*
Y180190D02*
D03*
Y186690D02*
D03*
Y193190D02*
D03*
Y199690D02*
D03*
Y206190D02*
D03*
X173140Y160690D02*
D03*
Y167190D02*
D03*
Y173690D02*
D03*
Y180190D02*
D03*
Y186690D02*
D03*
Y193190D02*
D03*
Y199690D02*
D03*
Y206190D02*
D03*
D23*
X39141Y53340D02*
D03*
X48341D02*
D03*
X94061Y109220D02*
D03*
X84861D02*
D03*
X39141Y82482D02*
D03*
X48341D02*
D03*
X84861Y60960D02*
D03*
X94061D02*
D03*
X72700Y166370D02*
D03*
X63500D02*
D03*
X94061Y99060D02*
D03*
X84861D02*
D03*
D24*
X70581Y145400D02*
D03*
Y140400D02*
D03*
Y135400D02*
D03*
Y130400D02*
D03*
Y125400D02*
D03*
Y120400D02*
D03*
Y115400D02*
D03*
Y110400D02*
D03*
X21581D02*
D03*
Y115400D02*
D03*
Y120400D02*
D03*
Y125400D02*
D03*
Y130400D02*
D03*
Y135400D02*
D03*
Y140400D02*
D03*
Y145400D02*
D03*
D25*
X63581Y103400D02*
D03*
X58581D02*
D03*
X53581D02*
D03*
X48581D02*
D03*
X43581D02*
D03*
X38581D02*
D03*
X33581D02*
D03*
X28581D02*
D03*
Y152400D02*
D03*
X33581D02*
D03*
X38581D02*
D03*
X43581D02*
D03*
X48581D02*
D03*
X53581D02*
D03*
X58581D02*
D03*
X63581D02*
D03*
D26*
X46081Y127900D02*
D03*
D27*
X83711Y72760D02*
D03*
X95211D02*
D03*
Y87260D02*
D03*
X83711D02*
D03*
D28*
X8890Y153980D02*
D03*
Y144780D02*
D03*
X58215Y76090D02*
D03*
Y66890D02*
D03*
X68658D02*
D03*
Y76090D02*
D03*
X96520Y150340D02*
D03*
Y159540D02*
D03*
D29*
X39141Y62110D02*
D03*
Y71610D02*
D03*
D30*
X289560Y126610D02*
D03*
Y109610D02*
D03*
Y92320D02*
D03*
Y75320D02*
D03*
D31*
X31350Y221420D02*
D03*
Y198420D02*
D03*
D32*
Y209920D02*
D03*
D33*
X8050Y191420D02*
D03*
Y228420D02*
D03*
D34*
X76870Y225450D02*
D03*
X102870Y244450D02*
D03*
Y234950D02*
D03*
Y225450D02*
D03*
X76870Y244450D02*
D03*
D35*
X218750Y245500D02*
D03*
X206250D02*
D03*
X193750D02*
D03*
X181250D02*
D03*
D36*
X244250Y274500D02*
D03*
X155750D02*
D03*
D37*
X103000Y261750D02*
D03*
X96500D02*
D03*
X90000D02*
D03*
X83500D02*
D03*
X77000D02*
D03*
D38*
X102000Y288500D02*
D03*
X78000D02*
D03*
D39*
X122000Y264000D02*
D03*
X58000D02*
D03*
M02*
