G04*
G04 #@! TF.GenerationSoftware,Altium Limited,Altium Designer,18.1.6 (161)*
G04*
G04 Layer_Color=65535*
%FSLAX44Y44*%
%MOMM*%
G71*
G01*
G75*
%ADD10C,0.2000*%
%ADD11C,0.2500*%
%ADD12C,0.6000*%
%ADD13C,0.1200*%
%ADD14C,0.1500*%
%ADD15C,0.1524*%
%ADD16C,0.1270*%
%ADD17C,0.1250*%
%ADD18C,0.1000*%
G36*
X94950Y221420D02*
X89340D01*
X94950Y227030D01*
Y221420D01*
D02*
G37*
D10*
X187888Y81316D02*
G03*
X188310Y84190I-9578J2873D01*
G01*
Y120190D02*
G03*
X178310Y130190I-10000J0D01*
G01*
X162150Y64079D02*
G03*
X178473Y64077I8162J5669D01*
G01*
X152310Y84190D02*
G03*
X152732Y81316I10000J0D01*
G01*
X162310Y130190D02*
G03*
X152310Y120190I0J-10000D01*
G01*
X188310Y84190D02*
Y89790D01*
X188310Y113190D02*
X188310Y120190D01*
X152310D02*
X152310Y113190D01*
X152310Y84190D02*
Y89790D01*
X178470Y64079D02*
X180550Y67782D01*
X181590Y69633D01*
X159030D02*
X160070Y67782D01*
X162150Y64079D01*
X162310Y130190D02*
X178310D01*
X217140Y157940D02*
Y208940D01*
X187140Y157940D02*
Y208940D01*
Y157940D02*
X217140D01*
X187140Y208940D02*
X217140D01*
X149251Y295500D02*
X250750D01*
X149251Y243500D02*
X173251D01*
X226750D02*
X250750D01*
Y255500D01*
X149250Y243500D02*
Y255500D01*
X250750Y293500D02*
Y295500D01*
X149250Y293500D02*
Y295500D01*
X129300Y300370D02*
Y310500D01*
Y275000D02*
Y279280D01*
X50700Y310500D02*
X129300D01*
X50700Y300370D02*
Y310500D01*
Y275000D02*
Y279280D01*
X227950Y61600D02*
Y130400D01*
X197250D02*
X227950D01*
X197250Y61600D02*
Y130400D01*
Y61600D02*
X227950D01*
D11*
X232390Y153440D02*
G03*
X232390Y153440I-1250J0D01*
G01*
X73250Y156540D02*
G03*
X73250Y156540I-1250J0D01*
G01*
X220000Y231997D02*
G03*
X220000Y231997I-1250J0D01*
G01*
X110470Y273050D02*
G03*
X110470Y273050I-1250J0D01*
G01*
D12*
X210140Y167940D02*
G03*
X210140Y167940I-3000J0D01*
G01*
D13*
X41841Y230650D02*
Y239250D01*
X54841Y230650D02*
Y239250D01*
X267820Y113230D02*
Y121830D01*
X280820Y113230D02*
Y121830D01*
X198930Y155090D02*
X204930D01*
X198930Y142090D02*
X204930D01*
X277010Y195190D02*
Y201190D01*
X264010Y195190D02*
Y201190D01*
X263040Y195190D02*
Y201190D01*
X250040Y195190D02*
Y201190D01*
X277010Y168450D02*
Y174450D01*
X264010Y168450D02*
Y174450D01*
X263040Y168520D02*
Y174520D01*
X250040Y168520D02*
Y174520D01*
X42141Y58340D02*
X45341D01*
X42141Y48340D02*
X45341D01*
X87861Y104220D02*
X91061D01*
X87861Y114220D02*
X91061D01*
X90320Y151870D02*
Y157870D01*
X77320Y151870D02*
Y157870D01*
X13890Y147780D02*
Y150980D01*
X3890Y147780D02*
Y150980D01*
X42141Y87482D02*
X45341D01*
X42141Y77482D02*
X45341D01*
X63215Y69890D02*
Y73090D01*
X53215Y69890D02*
Y73090D01*
X63658Y69890D02*
Y73090D01*
X73658Y69890D02*
Y73090D01*
X87861Y65960D02*
X91061D01*
X87861Y55960D02*
X91061D01*
X66500Y161370D02*
X69700D01*
X66500Y171370D02*
X69700D01*
X87861Y94060D02*
X91061D01*
X87861Y104060D02*
X91061D01*
X91520Y153340D02*
Y156540D01*
X101520Y153340D02*
Y156540D01*
X68730Y231950D02*
Y237950D01*
X55730Y231950D02*
Y237950D01*
X124610Y231950D02*
Y237950D01*
X111610Y231950D02*
Y237950D01*
X280780Y79520D02*
Y88120D01*
X267780Y79520D02*
Y88120D01*
D14*
X20331Y149650D02*
Y153650D01*
X24331D01*
X20331Y102150D02*
Y106150D01*
Y102150D02*
X24331D01*
X67831D02*
X71831D01*
Y106150D01*
X67831Y153650D02*
X71831Y149650D01*
D15*
X88861Y69210D02*
X90061D01*
X80661Y78410D02*
Y81610D01*
X88861Y90810D02*
X90061D01*
X98261Y78410D02*
Y81610D01*
X35640Y57861D02*
Y64361D01*
Y69361D02*
Y75861D01*
X42640Y57861D02*
Y64361D01*
Y69361D02*
Y75861D01*
X35640D02*
X42640D01*
X35640Y57861D02*
X42640D01*
D16*
X286060Y134860D02*
X293060D01*
X282810Y102610D02*
Y113610D01*
X296310Y102610D02*
Y113610D01*
X282810Y102610D02*
X296310D01*
X282810Y122610D02*
Y131610D01*
X296310Y122610D02*
Y131610D01*
X294310Y133610D02*
X296310Y131610D01*
X293060Y134860D02*
X294560Y133360D01*
X284310Y133110D02*
X286060Y134860D01*
X284810Y133610D02*
X294310D01*
X282810Y131610D02*
X284810Y133610D01*
X286060Y100570D02*
X293060D01*
X282810Y68320D02*
Y79320D01*
X296310Y68320D02*
Y79320D01*
X282810Y68320D02*
X296310D01*
X282810Y88320D02*
Y97320D01*
X296310Y88320D02*
Y97320D01*
X294310Y99320D02*
X296310Y97320D01*
X293060Y100570D02*
X294560Y99070D01*
X284310Y98820D02*
X286060Y100570D01*
X284810Y99320D02*
X294310D01*
X282810Y97320D02*
X284810Y99320D01*
X84790Y221420D02*
X94950D01*
X84790Y248420D02*
X84790Y221420D01*
X84790Y248420D02*
X94950D01*
X94950Y221420D02*
X94950Y248420D01*
D17*
X-1950Y184920D02*
X2050D01*
X-1950Y234920D02*
X2050D01*
X24050Y232920D02*
X36050D01*
Y226920D02*
Y232920D01*
Y185920D02*
Y192920D01*
X24050Y185920D02*
X36050D01*
X-1950Y184920D02*
Y234920D01*
D18*
X30480Y247650D02*
Y255647D01*
X34479D01*
X35812Y254314D01*
Y251649D01*
X34479Y250316D01*
X30480D01*
X33146D02*
X35812Y247650D01*
X38477D02*
X41143D01*
X39810D01*
Y255647D01*
X38477Y254314D01*
X170432Y151445D02*
X169099Y152777D01*
X166433D01*
X165100Y151445D01*
Y146113D01*
X166433Y144780D01*
X169099D01*
X170432Y146113D01*
X173097Y144780D02*
X175763D01*
X174430D01*
Y152777D01*
X173097Y151445D01*
X183761Y144780D02*
Y152777D01*
X179762Y148779D01*
X185094D01*
X273365Y229618D02*
X274697Y230951D01*
Y233617D01*
X273365Y234950D01*
X268033D01*
X266700Y233617D01*
Y230951D01*
X268033Y229618D01*
X266700Y226953D02*
Y224287D01*
Y225620D01*
X274697D01*
X273365Y226953D01*
Y220288D02*
X274697Y218955D01*
Y216289D01*
X273365Y214956D01*
X272032D01*
X270699Y216289D01*
X269366Y214956D01*
X268033D01*
X266700Y216289D01*
Y218955D01*
X268033Y220288D01*
X269366D01*
X270699Y218955D01*
X272032Y220288D01*
X273365D01*
X270699Y218955D02*
Y216289D01*
X259394Y229618D02*
X260727Y230951D01*
Y233617D01*
X259394Y234950D01*
X254063D01*
X252730Y233617D01*
Y230951D01*
X254063Y229618D01*
X252730Y226953D02*
Y224287D01*
Y225620D01*
X260727D01*
X259394Y226953D01*
X260727Y214956D02*
X259394Y217622D01*
X256729Y220288D01*
X254063D01*
X252730Y218955D01*
Y216289D01*
X254063Y214956D01*
X255396D01*
X256729Y216289D01*
Y220288D01*
X273365Y149758D02*
X274697Y151091D01*
Y153757D01*
X273365Y155090D01*
X268033D01*
X266700Y153757D01*
Y151091D01*
X268033Y149758D01*
X266700Y147093D02*
Y144427D01*
Y145760D01*
X274697D01*
X273365Y147093D01*
X274697Y135097D02*
Y140428D01*
X270699D01*
X272032Y137762D01*
Y136429D01*
X270699Y135097D01*
X268033D01*
X266700Y136429D01*
Y139095D01*
X268033Y140428D01*
X259394Y149758D02*
X260727Y151091D01*
Y153757D01*
X259394Y155090D01*
X254063D01*
X252730Y153757D01*
Y151091D01*
X254063Y149758D01*
X252730Y147093D02*
Y144427D01*
Y145760D01*
X260727D01*
X259394Y147093D01*
X260727Y140428D02*
Y135097D01*
X259394D01*
X254063Y140428D01*
X252730D01*
X195580Y186559D02*
Y179895D01*
X196913Y178562D01*
X199579D01*
X200912Y179895D01*
Y186559D01*
X203577Y185226D02*
X204910Y186559D01*
X207576D01*
X208909Y185226D01*
Y183894D01*
X207576Y182561D01*
X206243D01*
X207576D01*
X208909Y181228D01*
Y179895D01*
X207576Y178562D01*
X204910D01*
X203577Y179895D01*
X16762Y55005D02*
X15429Y56337D01*
X12763D01*
X11430Y55005D01*
Y49673D01*
X12763Y48340D01*
X15429D01*
X16762Y49673D01*
X19427Y48340D02*
X22093D01*
X20760D01*
Y56337D01*
X19427Y55005D01*
X26092D02*
X27425Y56337D01*
X30091D01*
X31424Y55005D01*
Y49673D01*
X30091Y48340D01*
X27425D01*
X26092Y49673D01*
Y55005D01*
X108202Y110885D02*
X106869Y112217D01*
X104203D01*
X102870Y110885D01*
Y105553D01*
X104203Y104220D01*
X106869D01*
X108202Y105553D01*
X110867Y110885D02*
X112200Y112217D01*
X114866D01*
X116199Y110885D01*
Y109552D01*
X114866Y108219D01*
X113533D01*
X114866D01*
X116199Y106886D01*
Y105553D01*
X114866Y104220D01*
X112200D01*
X110867Y105553D01*
X81698Y178764D02*
X80365Y180097D01*
X77699D01*
X76366Y178764D01*
Y173433D01*
X77699Y172100D01*
X80365D01*
X81698Y173433D01*
X89695Y180097D02*
X84363D01*
Y176099D01*
X87029Y177432D01*
X88362D01*
X89695Y176099D01*
Y173433D01*
X88362Y172100D01*
X85696D01*
X84363Y173433D01*
X3890Y98807D02*
Y92143D01*
X5223Y90810D01*
X7889D01*
X9222Y92143D01*
Y98807D01*
X17219Y90810D02*
X11887D01*
X17219Y96142D01*
Y97474D01*
X15886Y98807D01*
X13220D01*
X11887Y97474D01*
X102870Y84197D02*
X108202Y76200D01*
Y84197D02*
X102870Y76200D01*
X110867D02*
X113533D01*
X112200D01*
Y84197D01*
X110867Y82865D01*
X10412Y169874D02*
X9079Y171207D01*
X6413D01*
X5080Y169874D01*
Y164543D01*
X6413Y163210D01*
X9079D01*
X10412Y164543D01*
X13077Y163210D02*
X15743D01*
X14410D01*
Y171207D01*
X13077Y169874D01*
X19742D02*
X21075Y171207D01*
X23741D01*
X25074Y169874D01*
Y168542D01*
X23741Y167209D01*
X22408D01*
X23741D01*
X25074Y165876D01*
Y164543D01*
X23741Y163210D01*
X21075D01*
X19742Y164543D01*
X15492Y85075D02*
X14159Y86407D01*
X11493D01*
X10160Y85075D01*
Y79743D01*
X11493Y78410D01*
X14159D01*
X15492Y79743D01*
X18157D02*
X19490Y78410D01*
X22156D01*
X23489Y79743D01*
Y85075D01*
X22156Y86407D01*
X19490D01*
X18157Y85075D01*
Y83742D01*
X19490Y82409D01*
X23489D01*
X61274Y52529D02*
X62607Y53862D01*
Y56528D01*
X61274Y57861D01*
X55943D01*
X54610Y56528D01*
Y53862D01*
X55943Y52529D01*
X61274Y49863D02*
X62607Y48531D01*
Y45865D01*
X61274Y44532D01*
X59942D01*
X58609Y45865D01*
X57276Y44532D01*
X55943D01*
X54610Y45865D01*
Y48531D01*
X55943Y49863D01*
X57276D01*
X58609Y48531D01*
X59942Y49863D01*
X61274D01*
X58609Y48531D02*
Y45865D01*
X72874Y52529D02*
X74207Y53862D01*
Y56528D01*
X72874Y57861D01*
X67543D01*
X66210Y56528D01*
Y53862D01*
X67543Y52529D01*
X74207Y49863D02*
Y44532D01*
X72874D01*
X67543Y49863D01*
X66210D01*
X11430Y72358D02*
Y64361D01*
X16762D01*
X19427D02*
X22093D01*
X20760D01*
Y72358D01*
X19427Y71025D01*
X108202Y63815D02*
X106869Y65147D01*
X104203D01*
X102870Y63815D01*
Y58483D01*
X104203Y57150D01*
X106869D01*
X108202Y58483D01*
X116199Y65147D02*
X113533Y63815D01*
X110867Y61149D01*
Y58483D01*
X112200Y57150D01*
X114866D01*
X116199Y58483D01*
Y59816D01*
X114866Y61149D01*
X110867D01*
X48512Y169224D02*
X47179Y170557D01*
X44513D01*
X43180Y169224D01*
Y163893D01*
X44513Y162560D01*
X47179D01*
X48512Y163893D01*
X55176Y162560D02*
Y170557D01*
X51177Y166559D01*
X56509D01*
X108202Y99375D02*
X106869Y100707D01*
X104203D01*
X102870Y99375D01*
Y94043D01*
X104203Y92710D01*
X106869D01*
X108202Y94043D01*
X116199Y92710D02*
X110867D01*
X116199Y98042D01*
Y99375D01*
X114866Y100707D01*
X112200D01*
X110867Y99375D01*
X7872Y246695D02*
X6539Y248027D01*
X3873D01*
X2540Y246695D01*
Y245362D01*
X3873Y244029D01*
X6539D01*
X7872Y242696D01*
Y241363D01*
X6539Y240030D01*
X3873D01*
X2540Y241363D01*
X10537Y248027D02*
Y240030D01*
X13203Y242696D01*
X15869Y240030D01*
Y248027D01*
X18535Y240030D02*
X21201D01*
X19868D01*
Y248027D01*
X18535Y246695D01*
X82710Y212711D02*
Y206046D01*
X84043Y204713D01*
X86709D01*
X88042Y206046D01*
Y212711D01*
X90707Y204713D02*
X93373D01*
X92040D01*
Y212711D01*
X90707Y211378D01*
X152400Y246907D02*
Y254904D01*
X156399D01*
X157732Y253571D01*
Y250906D01*
X156399Y249573D01*
X152400D01*
X160397Y246907D02*
X163063D01*
X161730D01*
Y254904D01*
X160397Y253571D01*
X55116Y330577D02*
X52450D01*
X53783D01*
Y323913D01*
X52450Y322580D01*
X51117D01*
X49784Y323913D01*
X57781Y322580D02*
X60447D01*
X59114D01*
Y330577D01*
X57781Y329244D01*
X58552Y213918D02*
X57219Y215251D01*
X54553D01*
X53220Y213918D01*
Y208586D01*
X54553Y207253D01*
X57219D01*
X58552Y208586D01*
X61217Y207253D02*
X63883D01*
X62550D01*
Y215251D01*
X61217Y213918D01*
X73214Y207253D02*
X67882D01*
X73214Y212585D01*
Y213918D01*
X71881Y215251D01*
X69215D01*
X67882Y213918D01*
X114202Y211378D02*
X112869Y212711D01*
X110203D01*
X108870Y211378D01*
Y206046D01*
X110203Y204713D01*
X112869D01*
X114202Y206046D01*
X116867Y204713D02*
X119533D01*
X118200D01*
Y212711D01*
X116867Y211378D01*
X123532Y204713D02*
X126198D01*
X124865D01*
Y212711D01*
X123532Y211378D01*
X97280Y177071D02*
X95947Y178403D01*
X93281D01*
X91948Y177071D01*
Y171739D01*
X93281Y170406D01*
X95947D01*
X97280Y171739D01*
X99945Y170406D02*
X102611D01*
X101278D01*
Y178403D01*
X99945Y177071D01*
M02*
