G04*
G04 #@! TF.GenerationSoftware,Altium Limited,Altium Designer,18.1.6 (161)*
G04*
G04 Layer_Color=128*
%FSLAX44Y44*%
%MOMM*%
G71*
G01*
G75*
%ADD80C,0.0508*%
D80*
X165810Y69790D02*
X174810D01*
X170310Y65290D02*
Y74290D01*
X155650Y120590D02*
X164650D01*
X160150Y116090D02*
Y125090D01*
X175970Y120590D02*
X184970D01*
X180470Y116090D02*
Y125090D01*
X14550Y188670D02*
X23550D01*
X19050Y184170D02*
Y193170D01*
X14550Y231170D02*
X23550D01*
X19050Y226670D02*
Y235670D01*
X54500Y288500D02*
X59500D01*
X57000Y286000D02*
Y291000D01*
X120500Y288500D02*
X125500D01*
X123000Y286000D02*
Y291000D01*
X203250Y121400D02*
X209250D01*
X206250Y118400D02*
Y124400D01*
X215950Y121400D02*
X221950D01*
X218950Y118400D02*
Y124400D01*
X203250Y108700D02*
X209250D01*
X206250Y105700D02*
Y111700D01*
X215950Y108700D02*
X221950D01*
X218950Y105700D02*
Y111700D01*
X203250Y96000D02*
X209250D01*
X206250Y93000D02*
Y99000D01*
X215950Y96000D02*
X221950D01*
X218950Y93000D02*
Y99000D01*
X203250Y83300D02*
X209250D01*
X206250Y80300D02*
Y86300D01*
X215950Y83300D02*
X221950D01*
X218950Y80300D02*
Y86300D01*
X203250Y70600D02*
X209250D01*
X206250Y67600D02*
Y73600D01*
X215950Y70600D02*
X221950D01*
X218950Y67600D02*
Y73600D01*
X261320Y278130D02*
X287320D01*
X274320Y265130D02*
Y291130D01*
X12000Y275000D02*
X38000D01*
X25000Y262000D02*
Y288000D01*
X284500Y226000D02*
X287500D01*
X286000Y224500D02*
Y227500D01*
X284500Y186000D02*
X287500D01*
X286000Y184500D02*
Y187500D01*
X274500Y246000D02*
X277500D01*
X276000Y244500D02*
Y247500D01*
X264500Y226000D02*
X267500D01*
X266000Y224500D02*
Y227500D01*
X254500Y246000D02*
X257500D01*
X256000Y244500D02*
Y247500D01*
X244500Y226000D02*
X247500D01*
X246000Y224500D02*
Y227500D01*
X244500Y106000D02*
X247500D01*
X246000Y104500D02*
Y107500D01*
X244500Y66000D02*
X247500D01*
X246000Y64500D02*
Y67500D01*
X234500Y246000D02*
X237500D01*
X236000Y244500D02*
Y247500D01*
X234500Y126000D02*
X237500D01*
X236000Y124500D02*
Y127500D01*
X234500Y86000D02*
X237500D01*
X236000Y84500D02*
Y87500D01*
X214500Y286000D02*
X217500D01*
X216000Y284500D02*
Y287500D01*
X204500Y266000D02*
X207500D01*
X206000Y264500D02*
Y267500D01*
X194500Y286000D02*
X197500D01*
X196000Y284500D02*
Y287500D01*
X184500Y266000D02*
X187500D01*
X186000Y264500D02*
Y267500D01*
X184500Y226000D02*
X187500D01*
X186000Y224500D02*
Y227500D01*
X194500Y206000D02*
X197500D01*
X196000Y204500D02*
Y207500D01*
X174500Y286000D02*
X177500D01*
X176000Y284500D02*
Y287500D01*
X164500Y226000D02*
X167500D01*
X166000Y224500D02*
Y227500D01*
X154500Y246000D02*
X157500D01*
X156000Y244500D02*
Y247500D01*
X144500Y226000D02*
X147500D01*
X146000Y224500D02*
Y227500D01*
X144500Y66000D02*
X147500D01*
X146000Y64500D02*
Y67500D01*
X134500Y246000D02*
X137500D01*
X136000Y244500D02*
Y247500D01*
X134500Y126000D02*
X137500D01*
X136000Y124500D02*
Y127500D01*
X124500Y66000D02*
X127500D01*
X126000Y64500D02*
Y67500D01*
X114500Y206000D02*
X117500D01*
X116000Y204500D02*
Y207500D01*
X114500Y166000D02*
X117500D01*
X116000Y164500D02*
Y167500D01*
X114500Y86000D02*
X117500D01*
X116000Y84500D02*
Y87500D01*
X94500Y206000D02*
X97500D01*
X96000Y204500D02*
Y207500D01*
X74500Y206000D02*
X77500D01*
X76000Y204500D02*
Y207500D01*
X14500Y246000D02*
X17500D01*
X16000Y244500D02*
Y247500D01*
X149500Y161000D02*
X152500D01*
X151000Y159500D02*
Y162500D01*
X263500Y99000D02*
X266500D01*
X265000Y97500D02*
Y100500D01*
X287500Y101000D02*
X290500D01*
X289000Y99500D02*
Y102500D01*
X287600Y140000D02*
X290600D01*
X289100Y138500D02*
Y141500D01*
X95500Y123110D02*
X98500D01*
X97000Y121610D02*
Y124610D01*
X95500Y131000D02*
X98500D01*
X97000Y129500D02*
Y132500D01*
X78500Y114081D02*
X81500D01*
X80000Y112581D02*
Y115581D01*
X144500Y90380D02*
X147500D01*
X146000Y88880D02*
Y91880D01*
X144500Y103000D02*
X147500D01*
X146000Y101500D02*
Y104500D01*
X23520Y93000D02*
X26520D01*
X25020Y91500D02*
Y94500D01*
X31681Y93524D02*
X34681D01*
X33181Y92024D02*
Y95024D01*
X47500Y181610D02*
X50500D01*
X49000Y180110D02*
Y183110D01*
X47500Y172000D02*
X50500D01*
X49000Y170500D02*
Y173500D01*
X73500Y149000D02*
X76500D01*
X75000Y147500D02*
Y150500D01*
X15500Y151000D02*
X18500D01*
X17000Y149500D02*
Y152500D01*
X47500Y209000D02*
X50500D01*
X49000Y207500D02*
Y210500D01*
X9500Y115000D02*
X12500D01*
X11000Y113500D02*
Y116500D01*
X135500Y195220D02*
X138500D01*
X137000Y193720D02*
Y196720D01*
X128500Y188000D02*
X131500D01*
X130000Y186500D02*
Y189500D01*
X44557Y127900D02*
X47605D01*
X46081Y126376D02*
Y129424D01*
X56557Y127900D02*
X59605D01*
X58081Y126376D02*
Y129424D01*
X56557Y139900D02*
X59605D01*
X58081Y138376D02*
Y141424D01*
X44557Y139900D02*
X47605D01*
X46081Y138376D02*
Y141424D01*
X32557Y139900D02*
X35605D01*
X34081Y138376D02*
Y141424D01*
X32557Y127900D02*
X35605D01*
X34081Y126376D02*
Y129424D01*
X32557Y115900D02*
X35605D01*
X34081Y114376D02*
Y117424D01*
X44557Y115900D02*
X47605D01*
X46081Y114376D02*
Y117424D01*
X56557Y115900D02*
X59605D01*
X58081Y114376D02*
Y117424D01*
M02*
