G04*
G04 #@! TF.GenerationSoftware,Altium Limited,Altium Designer,18.1.6 (161)*
G04*
G04 Layer_Physical_Order=2*
G04 Layer_Color=16711680*
%FSLAX44Y44*%
%MOMM*%
G71*
G01*
G75*
%ADD11C,0.2500*%
%ADD62C,0.8500*%
%ADD68C,0.1800*%
%ADD69C,0.1530*%
%ADD72C,1.1000*%
%ADD73C,1.0000*%
%ADD74O,0.9000X1.6000*%
%ADD75R,1.0000X1.0000*%
%ADD76C,0.6000*%
%ADD77C,0.6096*%
%ADD78R,4.1750X3.7506*%
G36*
X297433Y296551D02*
X296159Y45400D01*
X2549D01*
Y297451D01*
X50759D01*
X51385Y296181D01*
X50886Y295530D01*
X50180Y293827D01*
X49940Y292000D01*
Y289500D01*
X57000D01*
X64060D01*
Y292000D01*
X63820Y293827D01*
X63115Y295530D01*
X62615Y296181D01*
X63241Y297451D01*
X116759D01*
X117385Y296181D01*
X116885Y295530D01*
X116180Y293827D01*
X115940Y292000D01*
Y289500D01*
X123000D01*
X130060D01*
Y292000D01*
X129820Y293827D01*
X129115Y295530D01*
X128615Y296181D01*
X129241Y297451D01*
X296538D01*
X297433Y296551D01*
D02*
G37*
%LPC*%
G36*
X217000Y291409D02*
Y287000D01*
X221409D01*
X221181Y288146D01*
X219965Y289966D01*
X218146Y291181D01*
X217000Y291409D01*
D02*
G37*
G36*
X215000D02*
X213854Y291181D01*
X212035Y289966D01*
X210819Y288146D01*
X210591Y287000D01*
X215000D01*
Y291409D01*
D02*
G37*
G36*
X197000D02*
Y287000D01*
X201409D01*
X201181Y288146D01*
X199965Y289966D01*
X198146Y291181D01*
X197000Y291409D01*
D02*
G37*
G36*
X195000D02*
X193854Y291181D01*
X192035Y289966D01*
X190819Y288146D01*
X190591Y287000D01*
X195000D01*
Y291409D01*
D02*
G37*
G36*
X177000D02*
Y287000D01*
X181409D01*
X181181Y288146D01*
X179965Y289966D01*
X178146Y291181D01*
X177000Y291409D01*
D02*
G37*
G36*
X175000D02*
X173854Y291181D01*
X172035Y289966D01*
X170819Y288146D01*
X170591Y287000D01*
X175000D01*
Y291409D01*
D02*
G37*
G36*
X221409Y285000D02*
X217000D01*
Y280592D01*
X218146Y280819D01*
X219965Y282035D01*
X221181Y283854D01*
X221409Y285000D01*
D02*
G37*
G36*
X215000D02*
X210591D01*
X210819Y283854D01*
X212035Y282035D01*
X213854Y280819D01*
X215000Y280592D01*
Y285000D01*
D02*
G37*
G36*
X201409D02*
X197000D01*
Y280592D01*
X198146Y280819D01*
X199965Y282035D01*
X201181Y283854D01*
X201409Y285000D01*
D02*
G37*
G36*
X195000D02*
X190591D01*
X190819Y283854D01*
X192035Y282035D01*
X193854Y280819D01*
X195000Y280592D01*
Y285000D01*
D02*
G37*
G36*
X181409D02*
X177000D01*
Y280592D01*
X178146Y280819D01*
X179965Y282035D01*
X181181Y283854D01*
X181409Y285000D01*
D02*
G37*
G36*
X175000D02*
X170591D01*
X170819Y283854D01*
X172035Y282035D01*
X173854Y280819D01*
X175000Y280592D01*
Y285000D01*
D02*
G37*
G36*
X64060Y287500D02*
X58000D01*
Y278071D01*
X58827Y278180D01*
X60530Y278885D01*
X61992Y280008D01*
X63115Y281470D01*
X63820Y283173D01*
X64060Y285000D01*
Y287500D01*
D02*
G37*
G36*
X130060D02*
X124000D01*
Y278071D01*
X124827Y278180D01*
X126530Y278885D01*
X127992Y280008D01*
X129115Y281470D01*
X129820Y283173D01*
X130060Y285000D01*
Y287500D01*
D02*
G37*
G36*
X122000D02*
X115940D01*
Y285000D01*
X116180Y283173D01*
X116885Y281470D01*
X118008Y280008D01*
X119470Y278885D01*
X121173Y278180D01*
X122000Y278071D01*
Y287500D01*
D02*
G37*
G36*
X56000D02*
X49940D01*
Y285000D01*
X50180Y283173D01*
X50886Y281470D01*
X52007Y280008D01*
X53470Y278885D01*
X55173Y278180D01*
X56000Y278071D01*
Y287500D01*
D02*
G37*
G36*
X207000Y271409D02*
Y267000D01*
X211409D01*
X211181Y268146D01*
X209965Y269966D01*
X208146Y271181D01*
X207000Y271409D01*
D02*
G37*
G36*
X205000D02*
X203854Y271181D01*
X202035Y269966D01*
X200819Y268146D01*
X200591Y267000D01*
X205000D01*
Y271409D01*
D02*
G37*
G36*
X187000D02*
Y267000D01*
X191409D01*
X191181Y268146D01*
X189965Y269966D01*
X188146Y271181D01*
X187000Y271409D01*
D02*
G37*
G36*
X185000D02*
X183854Y271181D01*
X182035Y269966D01*
X180819Y268146D01*
X180591Y267000D01*
X185000D01*
Y271409D01*
D02*
G37*
G36*
X274320Y292755D02*
X270535Y292257D01*
X267007Y290796D01*
X263979Y288472D01*
X261654Y285443D01*
X260193Y281915D01*
X259695Y278130D01*
X260193Y274345D01*
X261654Y270817D01*
X263979Y267789D01*
X267007Y265464D01*
X270535Y264003D01*
X274320Y263505D01*
X278105Y264003D01*
X281633Y265464D01*
X284662Y267789D01*
X286986Y270817D01*
X288447Y274345D01*
X288945Y278130D01*
X288447Y281915D01*
X286986Y285443D01*
X284662Y288472D01*
X281633Y290796D01*
X278105Y292257D01*
X274320Y292755D01*
D02*
G37*
G36*
X211409Y265000D02*
X207000D01*
Y260592D01*
X208146Y260819D01*
X209965Y262035D01*
X211181Y263854D01*
X211409Y265000D01*
D02*
G37*
G36*
X205000D02*
X200591D01*
X200819Y263854D01*
X202035Y262035D01*
X203854Y260819D01*
X205000Y260592D01*
Y265000D01*
D02*
G37*
G36*
X191409D02*
X187000D01*
Y260592D01*
X188146Y260819D01*
X189965Y262035D01*
X191181Y263854D01*
X191409Y265000D01*
D02*
G37*
G36*
X185000D02*
X180591D01*
X180819Y263854D01*
X182035Y262035D01*
X183854Y260819D01*
X185000Y260592D01*
Y265000D01*
D02*
G37*
G36*
X25000Y289625D02*
X21215Y289127D01*
X17687Y287666D01*
X14658Y285341D01*
X12334Y282313D01*
X10873Y278785D01*
X10375Y275000D01*
X10873Y271215D01*
X12334Y267687D01*
X14658Y264659D01*
X17687Y262334D01*
X21215Y260873D01*
X25000Y260375D01*
X28785Y260873D01*
X32313Y262334D01*
X35341Y264659D01*
X37666Y267687D01*
X39127Y271215D01*
X39625Y275000D01*
X39127Y278785D01*
X37666Y282313D01*
X35341Y285341D01*
X32313Y287666D01*
X28785Y289127D01*
X25000Y289625D01*
D02*
G37*
G36*
X277000Y251409D02*
Y247000D01*
X281409D01*
X281181Y248146D01*
X279966Y249965D01*
X278146Y251181D01*
X277000Y251409D01*
D02*
G37*
G36*
X275000D02*
X273854Y251181D01*
X272035Y249965D01*
X270819Y248146D01*
X270592Y247000D01*
X275000D01*
Y251409D01*
D02*
G37*
G36*
X257000D02*
Y247000D01*
X261409D01*
X261181Y248146D01*
X259965Y249965D01*
X258146Y251181D01*
X257000Y251409D01*
D02*
G37*
G36*
X255000D02*
X253854Y251181D01*
X252035Y249965D01*
X250819Y248146D01*
X250591Y247000D01*
X255000D01*
Y251409D01*
D02*
G37*
G36*
X237000D02*
Y247000D01*
X241409D01*
X241181Y248146D01*
X239965Y249965D01*
X238146Y251181D01*
X237000Y251409D01*
D02*
G37*
G36*
X235000D02*
X233854Y251181D01*
X232035Y249965D01*
X230819Y248146D01*
X230591Y247000D01*
X235000D01*
Y251409D01*
D02*
G37*
G36*
X157000D02*
Y247000D01*
X161409D01*
X161181Y248146D01*
X159965Y249965D01*
X158146Y251181D01*
X157000Y251409D01*
D02*
G37*
G36*
X155000D02*
X153854Y251181D01*
X152035Y249965D01*
X150819Y248146D01*
X150591Y247000D01*
X155000D01*
Y251409D01*
D02*
G37*
G36*
X137000D02*
Y247000D01*
X141409D01*
X141181Y248146D01*
X139965Y249965D01*
X138146Y251181D01*
X137000Y251409D01*
D02*
G37*
G36*
X135000D02*
X133854Y251181D01*
X132035Y249965D01*
X130819Y248146D01*
X130591Y247000D01*
X135000D01*
Y251409D01*
D02*
G37*
G36*
X17000D02*
Y247000D01*
X21409D01*
X21181Y248146D01*
X19965Y249965D01*
X18146Y251181D01*
X17000Y251409D01*
D02*
G37*
G36*
X15000D02*
X13854Y251181D01*
X12035Y249965D01*
X10819Y248146D01*
X10591Y247000D01*
X15000D01*
Y251409D01*
D02*
G37*
G36*
X281409Y245000D02*
X277000D01*
Y240591D01*
X278146Y240819D01*
X279966Y242035D01*
X281181Y243854D01*
X281409Y245000D01*
D02*
G37*
G36*
X275000D02*
X270592D01*
X270819Y243854D01*
X272035Y242035D01*
X273854Y240819D01*
X275000Y240591D01*
Y245000D01*
D02*
G37*
G36*
X261409D02*
X257000D01*
Y240591D01*
X258146Y240819D01*
X259965Y242035D01*
X261181Y243854D01*
X261409Y245000D01*
D02*
G37*
G36*
X255000D02*
X250591D01*
X250819Y243854D01*
X252035Y242035D01*
X253854Y240819D01*
X255000Y240591D01*
Y245000D01*
D02*
G37*
G36*
X241409D02*
X237000D01*
Y240591D01*
X238146Y240819D01*
X239965Y242035D01*
X241181Y243854D01*
X241409Y245000D01*
D02*
G37*
G36*
X235000D02*
X230591D01*
X230819Y243854D01*
X232035Y242035D01*
X233854Y240819D01*
X235000Y240591D01*
Y245000D01*
D02*
G37*
G36*
X161409D02*
X157000D01*
Y240591D01*
X158146Y240819D01*
X159965Y242035D01*
X161181Y243854D01*
X161409Y245000D01*
D02*
G37*
G36*
X155000D02*
X150591D01*
X150819Y243854D01*
X152035Y242035D01*
X153854Y240819D01*
X155000Y240591D01*
Y245000D01*
D02*
G37*
G36*
X141409D02*
X137000D01*
Y240591D01*
X138146Y240819D01*
X139965Y242035D01*
X141181Y243854D01*
X141409Y245000D01*
D02*
G37*
G36*
X135000D02*
X130591D01*
X130819Y243854D01*
X132035Y242035D01*
X133854Y240819D01*
X135000Y240591D01*
Y245000D01*
D02*
G37*
G36*
X21409D02*
X17000D01*
Y240591D01*
X18146Y240819D01*
X19965Y242035D01*
X21181Y243854D01*
X21409Y245000D01*
D02*
G37*
G36*
X15000D02*
X10591D01*
X10819Y243854D01*
X12035Y242035D01*
X13854Y240819D01*
X15000Y240591D01*
Y245000D01*
D02*
G37*
G36*
X20050Y238603D02*
Y232170D01*
X26483D01*
X26357Y233128D01*
X25601Y234952D01*
X24399Y236519D01*
X22832Y237721D01*
X21008Y238477D01*
X20050Y238603D01*
D02*
G37*
G36*
X18050D02*
X17092Y238477D01*
X15268Y237721D01*
X13701Y236519D01*
X12499Y234952D01*
X11743Y233128D01*
X11617Y232170D01*
X18050D01*
Y238603D01*
D02*
G37*
G36*
X287000Y231409D02*
Y227000D01*
X291409D01*
X291181Y228146D01*
X289966Y229965D01*
X288146Y231181D01*
X287000Y231409D01*
D02*
G37*
G36*
X285000D02*
X283854Y231181D01*
X282035Y229965D01*
X280819Y228146D01*
X280592Y227000D01*
X285000D01*
Y231409D01*
D02*
G37*
G36*
X267000D02*
Y227000D01*
X271409D01*
X271181Y228146D01*
X269966Y229965D01*
X268146Y231181D01*
X267000Y231409D01*
D02*
G37*
G36*
X265000D02*
X263854Y231181D01*
X262035Y229965D01*
X260819Y228146D01*
X260592Y227000D01*
X265000D01*
Y231409D01*
D02*
G37*
G36*
X247000D02*
Y227000D01*
X251409D01*
X251181Y228146D01*
X249965Y229965D01*
X248146Y231181D01*
X247000Y231409D01*
D02*
G37*
G36*
X245000D02*
X243854Y231181D01*
X242035Y229965D01*
X240819Y228146D01*
X240591Y227000D01*
X245000D01*
Y231409D01*
D02*
G37*
G36*
X187000D02*
Y227000D01*
X191409D01*
X191181Y228146D01*
X189965Y229965D01*
X188146Y231181D01*
X187000Y231409D01*
D02*
G37*
G36*
X185000D02*
X183854Y231181D01*
X182035Y229965D01*
X180819Y228146D01*
X180591Y227000D01*
X185000D01*
Y231409D01*
D02*
G37*
G36*
X167000D02*
Y227000D01*
X171409D01*
X171181Y228146D01*
X169965Y229965D01*
X168146Y231181D01*
X167000Y231409D01*
D02*
G37*
G36*
X165000D02*
X163854Y231181D01*
X162035Y229965D01*
X160819Y228146D01*
X160591Y227000D01*
X165000D01*
Y231409D01*
D02*
G37*
G36*
X147000D02*
Y227000D01*
X151409D01*
X151181Y228146D01*
X149965Y229965D01*
X148146Y231181D01*
X147000Y231409D01*
D02*
G37*
G36*
X145000D02*
X143854Y231181D01*
X142035Y229965D01*
X140819Y228146D01*
X140591Y227000D01*
X145000D01*
Y231409D01*
D02*
G37*
G36*
X26483Y230170D02*
X20050D01*
Y223737D01*
X21008Y223863D01*
X22832Y224619D01*
X24399Y225821D01*
X25601Y227388D01*
X26357Y229212D01*
X26483Y230170D01*
D02*
G37*
G36*
X18050D02*
X11617D01*
X11743Y229212D01*
X12499Y227388D01*
X13701Y225821D01*
X15268Y224619D01*
X17092Y223863D01*
X18050Y223737D01*
Y230170D01*
D02*
G37*
G36*
X291409Y225000D02*
X287000D01*
Y220591D01*
X288146Y220819D01*
X289966Y222035D01*
X291181Y223854D01*
X291409Y225000D01*
D02*
G37*
G36*
X285000D02*
X280592D01*
X280819Y223854D01*
X282035Y222035D01*
X283854Y220819D01*
X285000Y220591D01*
Y225000D01*
D02*
G37*
G36*
X271409D02*
X267000D01*
Y220591D01*
X268146Y220819D01*
X269966Y222035D01*
X271181Y223854D01*
X271409Y225000D01*
D02*
G37*
G36*
X265000D02*
X260592D01*
X260819Y223854D01*
X262035Y222035D01*
X263854Y220819D01*
X265000Y220591D01*
Y225000D01*
D02*
G37*
G36*
X251409D02*
X247000D01*
Y220591D01*
X248146Y220819D01*
X249965Y222035D01*
X251181Y223854D01*
X251409Y225000D01*
D02*
G37*
G36*
X245000D02*
X240591D01*
X240819Y223854D01*
X242035Y222035D01*
X243854Y220819D01*
X245000Y220591D01*
Y225000D01*
D02*
G37*
G36*
X191409D02*
X187000D01*
Y220591D01*
X188146Y220819D01*
X189965Y222035D01*
X191181Y223854D01*
X191409Y225000D01*
D02*
G37*
G36*
X185000D02*
X180591D01*
X180819Y223854D01*
X182035Y222035D01*
X183854Y220819D01*
X185000Y220591D01*
Y225000D01*
D02*
G37*
G36*
X171409D02*
X167000D01*
Y220591D01*
X168146Y220819D01*
X169965Y222035D01*
X171181Y223854D01*
X171409Y225000D01*
D02*
G37*
G36*
X165000D02*
X160591D01*
X160819Y223854D01*
X162035Y222035D01*
X163854Y220819D01*
X165000Y220591D01*
Y225000D01*
D02*
G37*
G36*
X151409D02*
X147000D01*
Y220591D01*
X148146Y220819D01*
X149965Y222035D01*
X151181Y223854D01*
X151409Y225000D01*
D02*
G37*
G36*
X145000D02*
X140591D01*
X140819Y223854D01*
X142035Y222035D01*
X143854Y220819D01*
X145000Y220591D01*
Y225000D01*
D02*
G37*
G36*
X197000Y211409D02*
Y207000D01*
X201409D01*
X201181Y208146D01*
X199965Y209965D01*
X198146Y211181D01*
X197000Y211409D01*
D02*
G37*
G36*
X195000D02*
X193854Y211181D01*
X192035Y209965D01*
X190819Y208146D01*
X190591Y207000D01*
X195000D01*
Y211409D01*
D02*
G37*
G36*
X117000D02*
Y207000D01*
X121409D01*
X121181Y208146D01*
X119965Y209965D01*
X118146Y211181D01*
X117000Y211409D01*
D02*
G37*
G36*
X115000D02*
X113854Y211181D01*
X112035Y209965D01*
X110819Y208146D01*
X110591Y207000D01*
X115000D01*
Y211409D01*
D02*
G37*
G36*
X97000D02*
Y207000D01*
X101409D01*
X101181Y208146D01*
X99965Y209965D01*
X98146Y211181D01*
X97000Y211409D01*
D02*
G37*
G36*
X95000D02*
X93854Y211181D01*
X92035Y209965D01*
X90819Y208146D01*
X90591Y207000D01*
X95000D01*
Y211409D01*
D02*
G37*
G36*
X77000D02*
Y207000D01*
X81409D01*
X81181Y208146D01*
X79965Y209965D01*
X78146Y211181D01*
X77000Y211409D01*
D02*
G37*
G36*
X75000D02*
X73854Y211181D01*
X72035Y209965D01*
X70819Y208146D01*
X70591Y207000D01*
X75000D01*
Y211409D01*
D02*
G37*
G36*
X49000Y213588D02*
X47244Y213239D01*
X45756Y212244D01*
X44761Y210756D01*
X44412Y209000D01*
X44599Y208060D01*
X43270Y206730D01*
X42739Y205936D01*
X42553Y205000D01*
Y192650D01*
X9270Y159367D01*
X8739Y158573D01*
X8553Y157637D01*
Y118777D01*
X7756Y118244D01*
X6761Y116756D01*
X6412Y115000D01*
X6761Y113244D01*
X7756Y111756D01*
X9244Y110761D01*
X11000Y110412D01*
X12756Y110761D01*
X14244Y111756D01*
X15239Y113244D01*
X15588Y115000D01*
X15239Y116756D01*
X14244Y118244D01*
X13447Y118777D01*
Y146434D01*
X14717Y147113D01*
X15244Y146761D01*
X17000Y146412D01*
X18756Y146761D01*
X20244Y147756D01*
X20539Y148196D01*
X70572D01*
X70761Y147244D01*
X71756Y145756D01*
X73244Y144761D01*
X75000Y144412D01*
X75520Y144515D01*
X77196Y142839D01*
Y117620D01*
X76755Y117325D01*
X75761Y115837D01*
X75412Y114081D01*
X75761Y112325D01*
X76755Y110837D01*
X78244Y109842D01*
X80000Y109493D01*
X81756Y109842D01*
X83244Y110837D01*
X84239Y112325D01*
X84588Y114081D01*
X84239Y115837D01*
X83244Y117325D01*
X82804Y117620D01*
Y144000D01*
X82619Y144926D01*
X82702Y145234D01*
X83367Y146196D01*
X139000D01*
X140073Y146410D01*
X140983Y147017D01*
X150480Y156515D01*
X151000Y156412D01*
X152756Y156761D01*
X154244Y157756D01*
X155239Y159244D01*
X155588Y161000D01*
X155239Y162756D01*
X154244Y164244D01*
X152756Y165239D01*
X151000Y165588D01*
X149244Y165239D01*
X147756Y164244D01*
X146761Y162756D01*
X146412Y161000D01*
X146515Y160480D01*
X137839Y151804D01*
X78539D01*
X78244Y152244D01*
X76756Y153239D01*
X75000Y153588D01*
X74288Y153447D01*
X74073Y153590D01*
X73000Y153804D01*
X20539D01*
X20244Y154244D01*
X18756Y155239D01*
X17000Y155588D01*
X15244Y155239D01*
X14717Y154887D01*
X13671Y155446D01*
X13557Y156734D01*
X46730Y189906D01*
X47261Y190700D01*
X47447Y191637D01*
Y203597D01*
X48500Y204511D01*
X49000Y204412D01*
X50756Y204761D01*
X52244Y205756D01*
X53239Y207244D01*
X53588Y209000D01*
X53239Y210756D01*
X52244Y212244D01*
X50756Y213239D01*
X49000Y213588D01*
D02*
G37*
G36*
X201409Y205000D02*
X197000D01*
Y200591D01*
X198146Y200819D01*
X199965Y202035D01*
X201181Y203854D01*
X201409Y205000D01*
D02*
G37*
G36*
X195000D02*
X190591D01*
X190819Y203854D01*
X192035Y202035D01*
X193854Y200819D01*
X195000Y200591D01*
Y205000D01*
D02*
G37*
G36*
X121409D02*
X117000D01*
Y200591D01*
X118146Y200819D01*
X119965Y202035D01*
X121181Y203854D01*
X121409Y205000D01*
D02*
G37*
G36*
X115000D02*
X110591D01*
X110819Y203854D01*
X112035Y202035D01*
X113854Y200819D01*
X115000Y200591D01*
Y205000D01*
D02*
G37*
G36*
X101409D02*
X97000D01*
Y200591D01*
X98146Y200819D01*
X99965Y202035D01*
X101181Y203854D01*
X101409Y205000D01*
D02*
G37*
G36*
X95000D02*
X90591D01*
X90819Y203854D01*
X92035Y202035D01*
X93854Y200819D01*
X95000Y200591D01*
Y205000D01*
D02*
G37*
G36*
X81409D02*
X77000D01*
Y200591D01*
X78146Y200819D01*
X79965Y202035D01*
X81181Y203854D01*
X81409Y205000D01*
D02*
G37*
G36*
X75000D02*
X70591D01*
X70819Y203854D01*
X72035Y202035D01*
X73854Y200819D01*
X75000Y200591D01*
Y205000D01*
D02*
G37*
G36*
X137000Y199808D02*
X135244Y199459D01*
X133756Y198464D01*
X133223Y197667D01*
X62610D01*
X61674Y197481D01*
X60880Y196950D01*
X49941Y186011D01*
X49000Y186198D01*
X47244Y185849D01*
X45756Y184854D01*
X44761Y183366D01*
X44412Y181610D01*
X44761Y179854D01*
X45756Y178366D01*
X47056Y177496D01*
X47160Y176805D01*
X47056Y176113D01*
X45756Y175244D01*
X44761Y173756D01*
X44412Y172000D01*
X44761Y170244D01*
X45756Y168756D01*
X47244Y167761D01*
X49000Y167412D01*
X50756Y167761D01*
X52244Y168756D01*
X53239Y170244D01*
X53588Y172000D01*
X53401Y172941D01*
X66014Y185553D01*
X126223D01*
X126756Y184756D01*
X128244Y183761D01*
X130000Y183412D01*
X131756Y183761D01*
X133244Y184756D01*
X134239Y186244D01*
X134588Y188000D01*
X134239Y189756D01*
X133793Y190424D01*
X134708Y191339D01*
X135244Y190981D01*
X137000Y190632D01*
X138756Y190981D01*
X140244Y191976D01*
X141239Y193464D01*
X141588Y195220D01*
X141239Y196976D01*
X140244Y198464D01*
X138756Y199459D01*
X137000Y199808D01*
D02*
G37*
G36*
X20050Y196607D02*
Y189670D01*
X26987D01*
X26844Y190758D01*
X26038Y192705D01*
X24756Y194376D01*
X23084Y195658D01*
X21138Y196464D01*
X20050Y196607D01*
D02*
G37*
G36*
X18050D02*
X16962Y196464D01*
X15015Y195658D01*
X13344Y194376D01*
X12062Y192705D01*
X11256Y190758D01*
X11113Y189670D01*
X18050D01*
Y196607D01*
D02*
G37*
G36*
X287000Y191409D02*
Y187000D01*
X291409D01*
X291181Y188146D01*
X289966Y189965D01*
X288146Y191181D01*
X287000Y191409D01*
D02*
G37*
G36*
X285000D02*
X283854Y191181D01*
X282035Y189965D01*
X280819Y188146D01*
X280592Y187000D01*
X285000D01*
Y191409D01*
D02*
G37*
G36*
X26987Y187670D02*
X20050D01*
Y180733D01*
X21138Y180876D01*
X23084Y181682D01*
X24756Y182964D01*
X26038Y184636D01*
X26844Y186582D01*
X26987Y187670D01*
D02*
G37*
G36*
X18050D02*
X11113D01*
X11256Y186582D01*
X12062Y184636D01*
X13344Y182964D01*
X15015Y181682D01*
X16962Y180876D01*
X18050Y180733D01*
Y187670D01*
D02*
G37*
G36*
X291409Y185000D02*
X287000D01*
Y180591D01*
X288146Y180819D01*
X289966Y182035D01*
X291181Y183854D01*
X291409Y185000D01*
D02*
G37*
G36*
X285000D02*
X280592D01*
X280819Y183854D01*
X282035Y182035D01*
X283854Y180819D01*
X285000Y180591D01*
Y185000D01*
D02*
G37*
G36*
X117000Y171409D02*
Y167000D01*
X121409D01*
X121181Y168146D01*
X119965Y169965D01*
X118146Y171181D01*
X117000Y171409D01*
D02*
G37*
G36*
X115000D02*
X113854Y171181D01*
X112035Y169965D01*
X110819Y168146D01*
X110591Y167000D01*
X115000D01*
Y171409D01*
D02*
G37*
G36*
X121409Y165000D02*
X117000D01*
Y160591D01*
X118146Y160819D01*
X119965Y162035D01*
X121181Y163854D01*
X121409Y165000D01*
D02*
G37*
G36*
X115000D02*
X110591D01*
X110819Y163854D01*
X112035Y162035D01*
X113854Y160819D01*
X115000Y160591D01*
Y165000D01*
D02*
G37*
G36*
X57081Y145358D02*
X55916Y145126D01*
X54081Y143900D01*
X52855Y142065D01*
X52728Y141429D01*
X51434D01*
X51307Y142065D01*
X50081Y143900D01*
X48246Y145126D01*
X47081Y145358D01*
Y139900D01*
X45081D01*
Y145358D01*
X43916Y145126D01*
X42081Y143900D01*
X40855Y142065D01*
X40729Y141429D01*
X39434D01*
X39307Y142065D01*
X38081Y143900D01*
X36246Y145126D01*
X35081Y145358D01*
Y139900D01*
X34081D01*
Y138900D01*
X28623D01*
X28855Y137735D01*
X30081Y135900D01*
X31916Y134674D01*
X32552Y134547D01*
Y133252D01*
X31916Y133126D01*
X30081Y131900D01*
X28855Y130065D01*
X28623Y128900D01*
X34081D01*
Y126900D01*
X28623D01*
X28855Y125735D01*
X30081Y123900D01*
X31916Y122674D01*
X32552Y122547D01*
Y121252D01*
X31916Y121126D01*
X30081Y119900D01*
X28855Y118065D01*
X28623Y116900D01*
X34081D01*
Y115900D01*
X35081D01*
Y110442D01*
X36246Y110674D01*
X38081Y111900D01*
X39307Y113735D01*
X39434Y114371D01*
X40729D01*
X40855Y113735D01*
X42081Y111900D01*
X43916Y110674D01*
X45081Y110442D01*
Y115900D01*
X47081D01*
Y110442D01*
X48246Y110674D01*
X50081Y111900D01*
X51307Y113735D01*
X51434Y114371D01*
X52728D01*
X52855Y113735D01*
X54081Y111900D01*
X55916Y110674D01*
X57081Y110442D01*
Y115900D01*
X58081D01*
Y116900D01*
X63539D01*
X63307Y118065D01*
X62081Y119900D01*
X60246Y121126D01*
X59610Y121252D01*
Y122547D01*
X60246Y122674D01*
X62081Y123900D01*
X63307Y125735D01*
X63539Y126900D01*
X58081D01*
Y128900D01*
X63539D01*
X63307Y130065D01*
X62081Y131900D01*
X60246Y133126D01*
X59610Y133252D01*
Y134547D01*
X60246Y134674D01*
X62081Y135900D01*
X63307Y137735D01*
X63539Y138900D01*
X58081D01*
Y139900D01*
X57081D01*
Y145358D01*
D02*
G37*
G36*
X59081D02*
Y140900D01*
X63539D01*
X63307Y142065D01*
X62081Y143900D01*
X60246Y145126D01*
X59081Y145358D01*
D02*
G37*
G36*
X33081D02*
X31916Y145126D01*
X30081Y143900D01*
X28855Y142065D01*
X28623Y140900D01*
X33081D01*
Y145358D01*
D02*
G37*
G36*
X289100Y144588D02*
X287344Y144239D01*
X285856Y143244D01*
X285323Y142447D01*
X120000D01*
X119064Y142261D01*
X118270Y141730D01*
X109986Y133447D01*
X100777D01*
X100244Y134244D01*
X98756Y135239D01*
X97000Y135588D01*
X95244Y135239D01*
X93756Y134244D01*
X92761Y132756D01*
X92412Y131000D01*
X92761Y129244D01*
X93756Y127756D01*
X93854Y127690D01*
Y126420D01*
X93756Y126354D01*
X92761Y124866D01*
X92412Y123110D01*
X92761Y121354D01*
X93756Y119866D01*
X95244Y118871D01*
X97000Y118522D01*
X98756Y118871D01*
X100244Y119866D01*
X100777Y120663D01*
X110110D01*
X111046Y120849D01*
X111840Y121380D01*
X124014Y133553D01*
X252986D01*
X284599Y101940D01*
X284412Y101000D01*
X284761Y99244D01*
X285756Y97756D01*
X287244Y96761D01*
X289000Y96412D01*
X290756Y96761D01*
X292244Y97756D01*
X293239Y99244D01*
X293588Y101000D01*
X293239Y102756D01*
X292244Y104244D01*
X290756Y105239D01*
X289000Y105588D01*
X288060Y105401D01*
X257081Y136380D01*
X257567Y137553D01*
X285323D01*
X285856Y136756D01*
X287344Y135761D01*
X289100Y135412D01*
X290856Y135761D01*
X292344Y136756D01*
X293339Y138244D01*
X293688Y140000D01*
X293339Y141756D01*
X292344Y143244D01*
X290856Y144239D01*
X289100Y144588D01*
D02*
G37*
G36*
X237000Y131409D02*
Y127000D01*
X241409D01*
X241181Y128146D01*
X239965Y129965D01*
X238146Y131181D01*
X237000Y131409D01*
D02*
G37*
G36*
X235000D02*
X233854Y131181D01*
X232035Y129965D01*
X230819Y128146D01*
X230591Y127000D01*
X235000D01*
Y131409D01*
D02*
G37*
G36*
X137000D02*
Y127000D01*
X141409D01*
X141181Y128146D01*
X139965Y129965D01*
X138146Y131181D01*
X137000Y131409D01*
D02*
G37*
G36*
X135000D02*
X133854Y131181D01*
X132035Y129965D01*
X130819Y128146D01*
X130591Y127000D01*
X135000D01*
Y131409D01*
D02*
G37*
G36*
X218950Y127956D02*
X217253Y127733D01*
X215672Y127078D01*
X214314Y126036D01*
X213272Y124678D01*
X211928D01*
X210886Y126036D01*
X209528Y127078D01*
X207947Y127733D01*
X206250Y127956D01*
X204553Y127733D01*
X202972Y127078D01*
X201614Y126036D01*
X200572Y124678D01*
X199917Y123097D01*
X199694Y121400D01*
X199917Y119703D01*
X200572Y118122D01*
X201614Y116764D01*
X202972Y115722D01*
Y114378D01*
X201614Y113336D01*
X200572Y111978D01*
X199917Y110397D01*
X199694Y108700D01*
X199917Y107003D01*
X200572Y105422D01*
X201614Y104064D01*
X202972Y103022D01*
Y101678D01*
X201614Y100636D01*
X200572Y99278D01*
X199917Y97697D01*
X199694Y96000D01*
X199858Y94754D01*
X198655Y94161D01*
X197183Y95633D01*
X196434Y96134D01*
X195550Y96309D01*
X155957D01*
X150369Y101897D01*
X150588Y103000D01*
X150239Y104756D01*
X149244Y106244D01*
X147756Y107239D01*
X146000Y107588D01*
X144244Y107239D01*
X142756Y106244D01*
X142223Y105447D01*
X35020D01*
X34084Y105261D01*
X33290Y104730D01*
X25961Y97401D01*
X25020Y97588D01*
X23264Y97239D01*
X21776Y96244D01*
X20781Y94756D01*
X20432Y93000D01*
X20781Y91244D01*
X21776Y89756D01*
X23264Y88761D01*
X25020Y88412D01*
X26776Y88761D01*
X28264Y89756D01*
X28512Y90126D01*
X29937Y90280D01*
X31425Y89285D01*
X33181Y88936D01*
X34937Y89285D01*
X36425Y90280D01*
X37420Y91768D01*
X37769Y93524D01*
X37793Y93553D01*
X139366D01*
X141599Y91320D01*
X141412Y90380D01*
X141761Y88624D01*
X142756Y87136D01*
X144244Y86141D01*
X146000Y85792D01*
X147103Y86011D01*
X152367Y80747D01*
X153116Y80246D01*
X154000Y80071D01*
X193513D01*
X200319Y73266D01*
X199917Y72297D01*
X199694Y70600D01*
X199917Y68903D01*
X200572Y67322D01*
X201614Y65964D01*
X202972Y64922D01*
X204553Y64267D01*
X206250Y64044D01*
X207947Y64267D01*
X209528Y64922D01*
X210886Y65964D01*
X211180Y66347D01*
X212450Y65917D01*
Y64100D01*
X225450D01*
Y67796D01*
X236600D01*
X237673Y68010D01*
X238583Y68617D01*
X264480Y94515D01*
X265000Y94412D01*
X266756Y94761D01*
X268244Y95756D01*
X269239Y97244D01*
X269588Y99000D01*
X269239Y100756D01*
X268244Y102244D01*
X266756Y103239D01*
X265000Y103588D01*
X263244Y103239D01*
X261756Y102244D01*
X260761Y100756D01*
X260412Y99000D01*
X260515Y98480D01*
X235439Y73404D01*
X225450D01*
Y77100D01*
X225172D01*
X224621Y78370D01*
X225501Y79518D01*
X226257Y81342D01*
X226383Y82300D01*
X218950D01*
Y84300D01*
X226383D01*
X226257Y85258D01*
X225501Y87082D01*
X224299Y88649D01*
X223822Y89015D01*
Y90285D01*
X224299Y90651D01*
X225501Y92218D01*
X226257Y94042D01*
X226383Y95000D01*
X218950D01*
Y97000D01*
X226383D01*
X226257Y97958D01*
X225501Y99782D01*
X224299Y101349D01*
X223216Y102180D01*
X223090Y103529D01*
X223170Y103745D01*
X223586Y104064D01*
X224628Y105422D01*
X225283Y107003D01*
X225506Y108700D01*
X225283Y110397D01*
X224628Y111978D01*
X223586Y113336D01*
X222228Y114378D01*
Y115722D01*
X223586Y116764D01*
X224628Y118122D01*
X225283Y119703D01*
X225506Y121400D01*
X225283Y123097D01*
X224628Y124678D01*
X223586Y126036D01*
X222228Y127078D01*
X220647Y127733D01*
X218950Y127956D01*
D02*
G37*
G36*
X241409Y125000D02*
X237000D01*
Y120591D01*
X238146Y120819D01*
X239965Y122035D01*
X241181Y123854D01*
X241409Y125000D01*
D02*
G37*
G36*
X235000D02*
X230591D01*
X230819Y123854D01*
X232035Y122035D01*
X233854Y120819D01*
X235000Y120591D01*
Y125000D01*
D02*
G37*
G36*
X141409D02*
X137000D01*
Y120591D01*
X138146Y120819D01*
X139965Y122035D01*
X141181Y123854D01*
X141409Y125000D01*
D02*
G37*
G36*
X135000D02*
X130591D01*
X130819Y123854D01*
X132035Y122035D01*
X133854Y120819D01*
X135000Y120591D01*
Y125000D01*
D02*
G37*
G36*
X180470Y126707D02*
X178129Y126242D01*
X176144Y124916D01*
X174818Y122931D01*
X174352Y120590D01*
X174818Y118249D01*
X176144Y116264D01*
X178129Y114938D01*
X180470Y114473D01*
X182811Y114938D01*
X184796Y116264D01*
X186122Y118249D01*
X186588Y120590D01*
X186122Y122931D01*
X184796Y124916D01*
X182811Y126242D01*
X180470Y126707D01*
D02*
G37*
G36*
X160150D02*
X157809Y126242D01*
X155824Y124916D01*
X154498Y122931D01*
X154032Y120590D01*
X154498Y118249D01*
X155824Y116264D01*
X157809Y114938D01*
X160150Y114473D01*
X162491Y114938D01*
X164476Y116264D01*
X165802Y118249D01*
X166268Y120590D01*
X165802Y122931D01*
X164476Y124916D01*
X162491Y126242D01*
X160150Y126707D01*
D02*
G37*
G36*
X63539Y114900D02*
X59081D01*
Y110442D01*
X60246Y110674D01*
X62081Y111900D01*
X63307Y113735D01*
X63539Y114900D01*
D02*
G37*
G36*
X33081D02*
X28623D01*
X28855Y113735D01*
X30081Y111900D01*
X31916Y110674D01*
X33081Y110442D01*
Y114900D01*
D02*
G37*
G36*
X247000Y111409D02*
Y107000D01*
X251409D01*
X251181Y108146D01*
X249965Y109965D01*
X248146Y111181D01*
X247000Y111409D01*
D02*
G37*
G36*
X245000D02*
X243854Y111181D01*
X242035Y109965D01*
X240819Y108146D01*
X240591Y107000D01*
X245000D01*
Y111409D01*
D02*
G37*
G36*
X251409Y105000D02*
X247000D01*
Y100591D01*
X248146Y100819D01*
X249965Y102035D01*
X251181Y103854D01*
X251409Y105000D01*
D02*
G37*
G36*
X245000D02*
X240591D01*
X240819Y103854D01*
X242035Y102035D01*
X243854Y100819D01*
X245000Y100591D01*
Y105000D01*
D02*
G37*
G36*
X237000Y91409D02*
Y87000D01*
X241409D01*
X241181Y88146D01*
X239965Y89965D01*
X238146Y91181D01*
X237000Y91409D01*
D02*
G37*
G36*
X235000D02*
X233854Y91181D01*
X232035Y89965D01*
X230819Y88146D01*
X230591Y87000D01*
X235000D01*
Y91409D01*
D02*
G37*
G36*
X117000D02*
Y87000D01*
X121409D01*
X121181Y88146D01*
X119965Y89965D01*
X118146Y91181D01*
X117000Y91409D01*
D02*
G37*
G36*
X115000D02*
X113854Y91181D01*
X112035Y89965D01*
X110819Y88146D01*
X110591Y87000D01*
X115000D01*
Y91409D01*
D02*
G37*
G36*
X241409Y85000D02*
X237000D01*
Y80591D01*
X238146Y80819D01*
X239965Y82035D01*
X241181Y83854D01*
X241409Y85000D01*
D02*
G37*
G36*
X235000D02*
X230591D01*
X230819Y83854D01*
X232035Y82035D01*
X233854Y80819D01*
X235000Y80591D01*
Y85000D01*
D02*
G37*
G36*
X121409D02*
X117000D01*
Y80591D01*
X118146Y80819D01*
X119965Y82035D01*
X121181Y83854D01*
X121409Y85000D01*
D02*
G37*
G36*
X115000D02*
X110591D01*
X110819Y83854D01*
X112035Y82035D01*
X113854Y80819D01*
X115000Y80591D01*
Y85000D01*
D02*
G37*
G36*
X247000Y71409D02*
Y67000D01*
X251409D01*
X251181Y68146D01*
X249965Y69965D01*
X248146Y71181D01*
X247000Y71409D01*
D02*
G37*
G36*
X245000D02*
X243854Y71181D01*
X242035Y69965D01*
X240819Y68146D01*
X240591Y67000D01*
X245000D01*
Y71409D01*
D02*
G37*
G36*
X147000D02*
Y67000D01*
X151409D01*
X151181Y68146D01*
X149965Y69965D01*
X148146Y71181D01*
X147000Y71409D01*
D02*
G37*
G36*
X145000D02*
X143854Y71181D01*
X142035Y69965D01*
X140819Y68146D01*
X140591Y67000D01*
X145000D01*
Y71409D01*
D02*
G37*
G36*
X127000D02*
Y67000D01*
X131409D01*
X131181Y68146D01*
X129965Y69965D01*
X128146Y71181D01*
X127000Y71409D01*
D02*
G37*
G36*
X125000D02*
X123854Y71181D01*
X122035Y69965D01*
X120819Y68146D01*
X120591Y67000D01*
X125000D01*
Y71409D01*
D02*
G37*
G36*
X170310Y75908D02*
X167969Y75442D01*
X165984Y74116D01*
X164658Y72131D01*
X164192Y69790D01*
X164658Y67449D01*
X165984Y65464D01*
X167969Y64138D01*
X170310Y63672D01*
X172651Y64138D01*
X174636Y65464D01*
X175962Y67449D01*
X176427Y69790D01*
X175962Y72131D01*
X174636Y74116D01*
X172651Y75442D01*
X170310Y75908D01*
D02*
G37*
G36*
X251409Y65000D02*
X247000D01*
Y60591D01*
X248146Y60819D01*
X249965Y62035D01*
X251181Y63854D01*
X251409Y65000D01*
D02*
G37*
G36*
X245000D02*
X240591D01*
X240819Y63854D01*
X242035Y62035D01*
X243854Y60819D01*
X245000Y60591D01*
Y65000D01*
D02*
G37*
G36*
X151409D02*
X147000D01*
Y60591D01*
X148146Y60819D01*
X149965Y62035D01*
X151181Y63854D01*
X151409Y65000D01*
D02*
G37*
G36*
X145000D02*
X140591D01*
X140819Y63854D01*
X142035Y62035D01*
X143854Y60819D01*
X145000Y60591D01*
Y65000D01*
D02*
G37*
G36*
X131409D02*
X127000D01*
Y60591D01*
X128146Y60819D01*
X129965Y62035D01*
X131181Y63854D01*
X131409Y65000D01*
D02*
G37*
G36*
X125000D02*
X120591D01*
X120819Y63854D01*
X122035Y62035D01*
X123854Y60819D01*
X125000Y60591D01*
Y65000D01*
D02*
G37*
%LPD*%
D11*
X139000Y149000D02*
X151000Y161000D01*
X75000Y149000D02*
X139000D01*
X75000D02*
X80000Y144000D01*
Y114081D02*
Y144000D01*
X218950Y70600D02*
X236600D01*
X265000Y99000D01*
X73000Y151000D02*
X75000Y149000D01*
X17000Y151000D02*
X73000D01*
D62*
X170310Y69790D02*
D03*
X160150Y120590D02*
D03*
X180470D02*
D03*
D68*
X254000Y136000D02*
X289000Y101000D01*
X123000Y136000D02*
X254000D01*
X110110Y123110D02*
X123000Y136000D01*
X97000Y123110D02*
X110110D01*
X120000Y140000D02*
X289100D01*
X111000Y131000D02*
X120000Y140000D01*
X97000Y131000D02*
X111000D01*
X33181Y93524D02*
X35657Y96000D01*
X140380D01*
X146000Y90380D01*
X25020Y93000D02*
X35020Y103000D01*
X146000D01*
X32657Y93000D02*
X33181Y93524D01*
X49000Y181610D02*
X62610Y195220D01*
X137000D01*
X65000Y188000D02*
X130000D01*
X50500Y173500D02*
X65000Y188000D01*
X45000Y205000D02*
X49000Y209000D01*
X45000Y191637D02*
Y205000D01*
X11000Y157637D02*
X45000Y191637D01*
X11000Y115000D02*
Y157637D01*
D69*
X155000Y94000D02*
X195550D01*
X146000Y103000D02*
X155000Y94000D01*
X195550D02*
X206250Y83300D01*
X194470Y82380D02*
X206250Y70600D01*
X154000Y82380D02*
X194470D01*
X146000Y90380D02*
X154000Y82380D01*
D72*
X19050Y188670D02*
D03*
D73*
Y231170D02*
D03*
X206250Y121400D02*
D03*
X218950D02*
D03*
X206250Y108700D02*
D03*
X218950D02*
D03*
X206250Y96000D02*
D03*
X218950D02*
D03*
X206250Y83300D02*
D03*
X218950D02*
D03*
X206250Y70600D02*
D03*
X274320Y278130D02*
D03*
X25000Y275000D02*
D03*
D74*
X57000Y288500D02*
D03*
X123000D02*
D03*
D75*
X218950Y70600D02*
D03*
D76*
X286000Y226000D02*
D03*
Y186000D02*
D03*
X276000Y246000D02*
D03*
X266000Y226000D02*
D03*
X256000Y246000D02*
D03*
X246000Y226000D02*
D03*
Y106000D02*
D03*
Y66000D02*
D03*
X236000Y246000D02*
D03*
Y126000D02*
D03*
Y86000D02*
D03*
X216000Y286000D02*
D03*
X206000Y266000D02*
D03*
X196000Y286000D02*
D03*
X186000Y266000D02*
D03*
Y226000D02*
D03*
X196000Y206000D02*
D03*
X176000Y286000D02*
D03*
X166000Y226000D02*
D03*
X156000Y246000D02*
D03*
X146000Y226000D02*
D03*
Y66000D02*
D03*
X136000Y246000D02*
D03*
Y126000D02*
D03*
X126000Y66000D02*
D03*
X116000Y206000D02*
D03*
Y166000D02*
D03*
Y86000D02*
D03*
X96000Y206000D02*
D03*
X76000D02*
D03*
X16000Y246000D02*
D03*
X151000Y161000D02*
D03*
X265000Y99000D02*
D03*
X289000Y101000D02*
D03*
X289100Y140000D02*
D03*
X97000Y123110D02*
D03*
Y131000D02*
D03*
X80000Y114081D02*
D03*
X146000Y90380D02*
D03*
Y103000D02*
D03*
X25020Y93000D02*
D03*
X33181Y93524D02*
D03*
X49000Y181610D02*
D03*
Y172000D02*
D03*
X75000Y149000D02*
D03*
X17000Y151000D02*
D03*
X49000Y209000D02*
D03*
X11000Y115000D02*
D03*
X137000Y195220D02*
D03*
X130000Y188000D02*
D03*
D77*
X46081Y127900D02*
D03*
X58081D02*
D03*
Y139900D02*
D03*
X46081D02*
D03*
X34081D02*
D03*
Y127900D02*
D03*
Y115900D02*
D03*
X46081D02*
D03*
X58081D02*
D03*
D78*
X44875Y129003D02*
D03*
M02*
