M48
;Layer_Color=9474304
;FILE_FORMAT=4:4
METRIC,LZ
;TYPE=PLATED
T1F00S00C0.3000
T2F00S00C0.3048
T4F00S00C0.6000
T5F00S00C0.9000
;TYPE=NON_PLATED
T6F00S00C0.9000
T7F00S00C2.6000
%
T01
X0002502Y00093
X00033181Y00093524
X00011Y00115
X0008Y00114081
X00097Y0012311
Y00131
X00136Y00126
X00116Y00086
X00126Y00066
X00146
X00146Y0009038
Y00103
X00246Y00106
X00265Y00099
X00289Y00101
X002891Y0014
X00236Y00126
Y00086
X00246Y00066
X00286Y00186
Y00226
X00266
X00246
X00256Y00246
X00276
X00236
X00206Y00266
X00186
X00196Y00286
X00216
X00176
X00156Y00246
X00166Y00226
X00186
X00196Y00206
X00146Y00226
X00151Y00161
X00116Y00166
X0013Y00188
X00137Y0019522
X00116Y00206
X00096
X00076
X00049Y00209
Y0018161
Y00172
X00075Y00149
X00017Y00151
X00016Y00246
X00136
T02
X00034081Y001159
Y001279
X00046081
X00058081
Y001399
X00046081
X00034081
X00046081Y001159
X00058081
T04
X0020625Y000706
Y000833
Y00096
Y001087
Y001214
X0021895
Y001087
Y00096
Y000833
Y000706
T05
X0001905Y0018867
Y0023117
T06
X0017031Y0006979
X0016015Y0012059
X0018047
T07
X0027432Y0027813
X00025Y00275
M30
